<svg xmlns="http://www.w3.org/2000/svg" viewBox="0 0 32 32" width="32" height="32">
  <defs>
    <linearGradient id="bg" x1="0" y1="0" x2="0" y2="1">
      <stop offset="0%" stop-color="#1e40af"/>
      <stop offset="100%" stop-color="#1e3a5f"/>
    </linearGradient>
    <linearGradient id="tail" x1="0" y1="0" x2="1" y2="1">
      <stop offset="0%" stop-color="#93c5fd"/>
      <stop offset="100%" stop-color="#60a5fa"/>
    </linearGradient>
  </defs>
  <rect width="32" height="32" rx="7" fill="url(#bg)"/>
  <!-- whale tail / fluke -->
  <path d="M16 24 C16 24 10 18 7 14 C5.5 12 6 9.5 8 9 C10 8.5 12 10 14 13 C14.8 14.2 15.5 16 16 18 C16.5 16 17.2 14.2 18 13 C20 10 22 8.5 24 9 C26 9.5 26.5 12 25 14 C22 18 16 24 16 24Z" fill="url(#tail)"/>
  <!-- water spray -->
  <circle cx="16" cy="6.5" r="1.2" fill="#93c5fd" opacity="0.8"/>
  <circle cx="13" cy="7.5" r="0.8" fill="#93c5fd" opacity="0.5"/>
  <circle cx="19" cy="7.5" r="0.8" fill="#93c5fd" opacity="0.5"/>
</svg>
